# xmcd CD database file
#
# Track frame offsets:
#	150
#	10880
#	14480
#	17522
#	20375
#	24310
#	32347
#	36617
#	38347
#	41895
#	44100
#	51795
#	58337
#	60120
#	61912
#	63957
#	68055
#	69510
#	70400
#	71595
#	72592
#	73320
#	79447
#	80272
#	80920
#	84150
#	91975
#	95920
#	96755
#	98845
#	102465
#	105402
#	107225
#	108097
#	109625
#	110975
#	113832
#	116932
#	129890
#	136287
#	140742
#	142485
#	149505
#	153887
#	163300
#	164865
#	168065
#	169977
#	170742
#	172062
#	174132
#	177632
#	179142
#	196997
#	203715
#	210875
#	241365
#	280102
#
# Disc length: 3903 seconds
#
# Revision: 0
# Processed by: cddbd v1.5.2PL0 Copyright (c) Steve Scherf et al.
# Submitted via: CDex 1.51
#
DISCID=5f0f3d3a
DTITLE=Joe Pass - Joe Pass on guitar
DYEAR=1996
DGENRE=Jazz
TTITLE0=Blues intro
TTITLE1=Tuning notes
TTITLE2=Caged example 1
TTITLE3=Caged example 2
TTITLE4=Caged example 3
TTITLE5=Right-hand Technique
TTITLE6=Right-hand Technique example 4
TTITLE7=Right-hand Technique example 5
TTITLE8=Example 6a
TTITLE9=example 6b
TTITLE10=Harmonic families
TTITLE11=Harmonic families - example 7a
TTITLE12=Harmonic families - example 7b
TTITLE13=Harmonic families - example 8
TTITLE14=Harmonic families - example 9
TTITLE15=Harmonic families - example 10
TTITLE16=Harmonic families - example 11
TTITLE17=Harmonic families - example 12
TTITLE18=Harmonic families - example 13
TTITLE19=Harmonic families - example 14
TTITLE20=Harmonic families - example 15
TTITLE21=Harmonic families - example 16
TTITLE22=Harmonic families - example 17
TTITLE23=Harmonic families - example 18
TTITLE24=Harmonic families - example 19
TTITLE25=Harmonic families - example 20
TTITLE26=Harmonic families - example 21
TTITLE27=Harmonic families - example 22
TTITLE28=Harmonic families - example 23
TTITLE29=Harmonic families - example 24
TTITLE30=Harmonic families - example 25
TTITLE31=Harmonic families - example 26
TTITLE32=Harmonic families - example 27
TTITLE33=Harmonic families - example 28
TTITLE34=Harmonic families - example 29
TTITLE35=Harmonic families - example 30
TTITLE36=Harmonic families - example 31
TTITLE37=Harmonic families - example 32
TTITLE38=Harmonic families - example 33
TTITLE39=Harmonic families - example 34
TTITLE40=Harmonic families - example 35
TTITLE41=Harmonic families - example 36
TTITLE42=Harmonic families - example 37
TTITLE43=Harmonic families - example 38
TTITLE44=Harmonic families - example 39
TTITLE45=Harmonic families - example 40
TTITLE46=Harmonic families - example 41
TTITLE47=Harmonic families - example 42
TTITLE48=Harmonic families - example 44
TTITLE49=Harmonic families - example 45
TTITLE50=Harmonic families - example 46
TTITLE51=Harmonic families - example 47
TTITLE52=Harmonic families - example 48
TTITLE53=Harmonic families - example 49
TTITLE54=Harmonic families - example 50
TTITLE55=All the things you are
TTITLE56=Jou's blues
TTITLE57=Stella by starlight
EXTD=YEAR: 1996
EXTT0=
EXTT1=
EXTT2=
EXTT3=
EXTT4=
EXTT5=
EXTT6=
EXTT7=
EXTT8=
EXTT9=
EXTT10=
EXTT11=
EXTT12=
EXTT13=
EXTT14=
EXTT15=
EXTT16=
EXTT17=
EXTT18=
EXTT19=
EXTT20=
EXTT21=
EXTT22=
EXTT23=
EXTT24=
EXTT25=
EXTT26=
EXTT27=
EXTT28=
EXTT29=
EXTT30=
EXTT31=
EXTT32=
EXTT33=
EXTT34=
EXTT35=
EXTT36=
EXTT37=
EXTT38=
EXTT39=
EXTT40=
EXTT41=
EXTT42=
EXTT43=
EXTT44=
EXTT45=
EXTT46=
EXTT47=
EXTT48=
EXTT49=
EXTT50=
EXTT51=
EXTT52=
EXTT53=
EXTT54=
EXTT55=
EXTT56=
EXTT57=
PLAYORDER=
